<?xml version="1.0" encoding="utf-8"?>
<!-- Generator: Adobe Illustrator 25.0.0, SVG Export Plug-In . SVG Version: 6.00 Build 0)  -->
<svg version="1.1" xmlns="http://www.w3.org/2000/svg" xmlns:xlink="http://www.w3.org/1999/xlink" x="0px" y="0px"
	 viewBox="0 0 37.25 14.09" style="enable-background:new 0 0 37.25 14.09;" xml:space="preserve">
<style type="text/css">
	.st0{fill:#FFFFFF;}
	.st1{display:none;fill:#281B33;}
	.st2{fill:url(#SVGID_1_);}
	.st3{display:none;}
</style>
<g id="logo">
	<path id="logotype" class="st0" d="M29.99,3.7c-0.25,0-0.47,0.09-0.64,0.27c-0.18,0.17-0.27,0.38-0.27,0.63s0.09,0.47,0.27,0.64
		c0.18,0.18,0.39,0.27,0.64,0.27s0.46-0.09,0.63-0.27c0.18-0.18,0.27-0.39,0.27-0.64c0-0.25-0.09-0.46-0.27-0.63
		C30.45,3.79,30.24,3.7,29.99,3.7z M16.48,3.91v7.68h1.41v-1.7l0.71-0.7l1.49,2.39h1.66V11.5l-2.17-3.27l2.07-2.03V6.12h-1.73
		l-1.96,1.97h-0.07V3.91L16.48,3.91z M22.48,3.91v7.68h1.32v-0.65h0.09c0.14,0.24,0.36,0.43,0.64,0.59c0.29,0.16,0.63,0.24,1,0.24
		c0.49,0,0.94-0.12,1.34-0.36c0.41-0.25,0.73-0.59,0.95-1.03c0.23-0.44,0.34-0.95,0.34-1.51c0-0.56-0.11-1.06-0.34-1.5
		c-0.23-0.44-0.55-0.79-0.95-1.03c-0.4-0.25-0.85-0.38-1.34-0.38c-0.37,0-0.7,0.08-0.99,0.25c-0.29,0.16-0.5,0.35-0.65,0.59H23.8
		l0.09-0.77v-2.1L22.48,3.91z M35.24,5.95c-0.35,0-0.68,0.08-0.98,0.24c-0.3,0.15-0.53,0.36-0.7,0.62h-0.09V6.12h-1.32v5.47h1.41
		V8.8c0-0.44,0.11-0.81,0.34-1.11c0.24-0.29,0.54-0.44,0.92-0.44c0.32,0,0.57,0.1,0.75,0.29c0.18,0.19,0.27,0.46,0.27,0.82v3.23
		h1.41v-3.4c0-0.69-0.17-1.24-0.52-1.64S35.89,5.95,35.24,5.95L35.24,5.95z M29.28,6.12v5.47h1.41V6.12H29.28z M25.28,7.25
		c0.26,0,0.51,0.07,0.74,0.2c0.23,0.13,0.41,0.31,0.55,0.56s0.2,0.52,0.2,0.84s-0.07,0.59-0.2,0.84s-0.32,0.43-0.55,0.57
		c-0.23,0.14-0.48,0.2-0.74,0.2c-0.26,0-0.5-0.07-0.73-0.2c-0.23-0.14-0.41-0.33-0.55-0.57c-0.14-0.24-0.2-0.52-0.2-0.84
		c0-0.31,0.07-0.59,0.2-0.84s0.32-0.43,0.55-0.56C24.78,7.32,25.02,7.25,25.28,7.25z"/>
</g>
<g id="Layer_2">
	<rect x="-1.15" y="-0.56" class="st1" width="17.54" height="16.81"/>
	<g>
		<g>
			<path class="st0" d="M8.5,11.31c0.26-0.05,0.2-0.11-0.08-0.23l-0.06-0.02l-0.04-0.05C8.28,10.96,7.33,9.79,8.3,8.24
				c0.71-1.14,1.09-1.2,1.55-1.2c0.16,0-0.08-0.22-0.07-0.21c0.08,0.03,0.88,0.28,1.01,0.39c0.41,0.33,1.15,1.09,1.21,1.95
				c0.05,0.67-0.13,1.29-0.72,1.93l-0.42,0.41c0.01-0.02,0.23-0.58-0.05-0.88c-0.23,0.28-0.66,0.76-1.39,0.76
				C9.37,11.39,8.05,11.39,8.5,11.31z"/>
			<g>
				<path class="st0" d="M9.93,12.99c-2.67,2.57-7.9-1.61-7.9-1.61s0.43-4.89,1.36-5.24C3.32,6.08,3.24,6,3.17,5.92
					C1.85,4.5,3.29,3.25,3.29,3.25c-0.23,1.3,1.14,1.61,1.14,1.61C2.82,2.4,5.56,1.71,5.56,1.71C4.89,3.27,6.13,3.84,6.13,3.84
					C4.88,0.74,9.2,0.39,9.2,0.39S6.79,2.46,8.27,3.98c0.25,0.26,1.45,0.67,2.01,1.59c1.1,1.79-0.51,4.34-1.06,5.07
					C8.66,11.36,9.93,12.99,9.93,12.99z"/>
				<linearGradient id="SVGID_1_" gradientUnits="userSpaceOnUse" x1="1.4441" y1="7.9885" x2="10.8144" y2="6.8331">
					<stop  offset="3.642173e-07" style="stop-color:#7A2BAB"/>
					<stop  offset="0.495" style="stop-color:#A842A7"/>
					<stop  offset="0.99" style="stop-color:#D15E76"/>
				</linearGradient>
				<path class="st2" d="M10.06,13c-0.33,0.41-0.64,0.54-0.99,0.71c-0.35,0.15-0.73,0.23-1.1,0.25c-0.75,0.04-1.49-0.11-2.19-0.35
					c-0.7-0.23-1.36-0.55-2-0.91c-0.63-0.37-1.26-0.74-1.82-1.23l-0.05-0.04l0.01-0.06c0.14-0.91,0.2-1.83,0.37-2.74
					c0.08-0.46,0.17-0.91,0.3-1.36C2.65,7.04,2.73,6.82,2.83,6.6c0.11-0.21,0.22-0.45,0.51-0.58L3.3,6.24l0,0
					C2.89,5.86,2.49,5.35,2.48,4.72C2.47,4.11,2.78,3.56,3.2,3.15l0.29-0.27l-0.07,0.4c-0.05,0.33,0,0.67,0.2,0.93
					c0.2,0.25,0.51,0.44,0.83,0.53L4.32,4.93l0,0c-0.2-0.29-0.36-0.61-0.46-0.96c-0.1-0.34-0.11-0.74,0.02-1.09
					c0.13-0.35,0.39-0.64,0.68-0.85c0.29-0.21,0.61-0.36,0.96-0.46L5.8,1.51L5.69,1.77c-0.16,0.36-0.22,0.75-0.14,1.1
					c0.08,0.35,0.34,0.66,0.64,0.85l0,0L6.01,3.88C5.82,3.45,5.72,2.95,5.8,2.46c0.07-0.5,0.37-0.94,0.74-1.24
					c0.77-0.61,1.71-0.85,2.64-0.96L9.6,0.21L9.29,0.5C8.85,0.9,8.45,1.37,8.18,1.9C7.9,2.42,7.82,3.04,8.1,3.55
					C8.16,3.68,8.26,3.79,8.35,3.9c0.09,0.08,0.23,0.16,0.36,0.24c0.26,0.16,0.54,0.31,0.8,0.49c0.52,0.35,0.98,0.87,1.15,1.5
					c0.35,1.28-0.14,2.56-0.73,3.64c-0.15,0.27-0.32,0.54-0.5,0.8c-0.21,0.25-0.26,0.46-0.2,0.76c0.05,0.28,0.17,0.56,0.31,0.82
					c0.07,0.13,0.15,0.26,0.23,0.39l0.13,0.19l0.07,0.09L10,12.86C10,12.88,10.03,12.87,10.06,13z M9.79,12.98
					c0,0.1,0.02,0.06-0.01,0.04l-0.04-0.05l-0.07-0.1l-0.13-0.2c-0.08-0.13-0.17-0.27-0.24-0.41c-0.15-0.28-0.28-0.58-0.34-0.9
					c-0.03-0.16-0.04-0.34,0-0.51c0.03-0.18,0.17-0.34,0.24-0.45C9.39,10.16,9.55,9.9,9.7,9.64c0.58-1.05,1.03-2.28,0.72-3.44
					c-0.16-0.57-0.54-1.05-1.03-1.4c-0.24-0.18-0.5-0.34-0.78-0.48C8.47,4.24,8.33,4.18,8.19,4.06C8.08,3.94,7.97,3.82,7.88,3.67
					C7.5,3.09,7.65,2.33,7.94,1.78c0.29-0.57,0.7-1.06,1.17-1.49l0.1,0.24C8.33,0.63,7.4,0.88,6.71,1.43
					C6.37,1.7,6.12,2.08,6.06,2.5C5.99,2.93,6.1,3.37,6.25,3.79l0.09,0.27L6.08,3.95l0,0C5.66,3.76,5.35,3.38,5.26,2.94
					C5.17,2.49,5.27,2.05,5.44,1.66L5.6,1.84C4.99,2.02,4.36,2.4,4.14,2.98C3.92,3.58,4.19,4.24,4.53,4.79l0,0l0.18,0.27L4.4,4.99
					C4.02,4.89,3.66,4.7,3.41,4.38C3.15,4.06,3.09,3.61,3.16,3.23l0.22,0.13C3.01,3.7,2.73,4.21,2.75,4.72
					C2.76,5.23,3.1,5.68,3.48,6.04l0,0l0.13,0.12l-0.17,0.1C3.16,6.44,2.99,6.94,2.86,7.35C2.73,7.78,2.62,8.22,2.53,8.67
					c-0.17,0.9-0.35,1.8-0.38,2.72l-0.04-0.1c0.59,0.4,1.18,0.82,1.81,1.17c0.63,0.35,1.28,0.66,1.96,0.89
					c0.68,0.23,1.39,0.37,2.09,0.33c0.35-0.02,0.7-0.09,1.01-0.23C9.29,13.35,9.59,13.07,9.79,12.98z"/>
			</g>
			<path d="M11.1,11.09c0,0,0.14-0.4-0.33-0.7c0,0-0.46,0.92-1.53,0.82c-0.22-0.02-0.46-0.08-0.72-0.2c0,0-0.89-1.1,0-2.57
				c0.89-1.48,2.03-1.21,2.03-1.21s0.08,0.05,0.2,0.15C11.31,7.85,12.71,9.29,11.1,11.09z"/>
		</g>
		<path class="st3" d="M10.55,7.24c0,0,2.51,1.65,0.54,3.85c0,0,0.14-0.4-0.33-0.71c0,0-0.66,1.34-2.24,0.62c0,0-0.89-1.1,0-2.56
			S10.55,7.24,10.55,7.24z"/>
		<g>
			<circle cx="6.24" cy="8.57" r="1.25"/>
			<path d="M7.45,8.26C7.62,8.92,7.22,9.6,6.55,9.78L7.45,8.26z"/>
			<g>
				<circle cx="6.24" cy="8.57" r="1.25"/>
				<circle class="st0" cx="5.8" cy="8.23" r="0.37"/>
			</g>
		</g>
		<g>
			<circle cx="6.24" cy="8.57" r="1.25"/>
			<path d="M7.45,8.26C7.62,8.92,7.22,9.6,6.55,9.78L7.45,8.26z"/>
			<g>
				<circle cx="6.24" cy="8.57" r="1.25"/>
				<circle class="st0" cx="5.8" cy="8.23" r="0.37"/>
			</g>
		</g>
	</g>
</g>
</svg>
