<?xml version="1.0" encoding="utf-8"?>
<!-- Generator: Adobe Illustrator 25.0.0, SVG Export Plug-In . SVG Version: 6.00 Build 0)  -->
<svg version="1.1" xmlns="http://www.w3.org/2000/svg" xmlns:xlink="http://www.w3.org/1999/xlink" x="0px" y="0px"
	 viewBox="0 0 37.25 14.09" style="enable-background:new 0 0 37.25 14.09;" xml:space="preserve">
<style type="text/css">
	.st0{fill:#FFFFFF;}
	.st1{fill:url(#SVGID_1_);}
	.st2{fill:url(#SVGID_2_);}
	.st3{fill:url(#SVGID_3_);}
	.st4{fill:url(#SVGID_4_);}
	.st5{fill:url(#SVGID_5_);}
	.st6{display:none;fill:#281B33;}
	.st7{fill:url(#SVGID_6_);}
	.st8{fill:url(#SVGID_7_);}
	.st9{fill:url(#SVGID_8_);}
	.st10{display:none;fill:#FFFFFF;}
	.st11{fill:url(#SVGID_9_);}
	.st12{display:none;}
	.st13{fill:url(#SVGID_10_);}
</style>
<g id="logo">
	<path id="logotype" class="st0" d="M29.99,3.7c-0.25,0-0.47,0.09-0.64,0.27c-0.18,0.17-0.27,0.38-0.27,0.63s0.09,0.47,0.27,0.64
		c0.18,0.18,0.39,0.27,0.64,0.27s0.46-0.09,0.63-0.27c0.18-0.18,0.27-0.39,0.27-0.64c0-0.25-0.09-0.46-0.27-0.63
		C30.45,3.79,30.24,3.7,29.99,3.7z M16.48,3.91v7.68h1.41v-1.7l0.71-0.7l1.49,2.39h1.66V11.5l-2.17-3.27l2.07-2.03V6.12h-1.73
		l-1.96,1.97h-0.07V3.91L16.48,3.91z M22.48,3.91v7.68h1.32v-0.65h0.09c0.14,0.24,0.36,0.43,0.64,0.59c0.29,0.16,0.63,0.24,1,0.24
		c0.49,0,0.94-0.12,1.34-0.36c0.41-0.25,0.73-0.59,0.95-1.03c0.23-0.44,0.34-0.95,0.34-1.51c0-0.56-0.11-1.06-0.34-1.5
		c-0.23-0.44-0.55-0.79-0.95-1.03c-0.4-0.25-0.85-0.38-1.34-0.38c-0.37,0-0.7,0.08-0.99,0.25c-0.29,0.16-0.5,0.35-0.65,0.59H23.8
		l0.09-0.77v-2.1L22.48,3.91z M35.24,5.95c-0.35,0-0.68,0.08-0.98,0.24c-0.3,0.15-0.53,0.36-0.7,0.62h-0.09V6.12h-1.32v5.47h1.41
		V8.8c0-0.44,0.11-0.81,0.34-1.11c0.24-0.29,0.54-0.44,0.92-0.44c0.32,0,0.57,0.1,0.75,0.29c0.18,0.19,0.27,0.46,0.27,0.82v3.23
		h1.41v-3.4c0-0.69-0.17-1.24-0.52-1.64S35.89,5.95,35.24,5.95L35.24,5.95z M29.28,6.12v5.47h1.41V6.12H29.28z M25.28,7.25
		c0.26,0,0.51,0.07,0.74,0.2c0.23,0.13,0.41,0.31,0.55,0.56s0.2,0.52,0.2,0.84s-0.07,0.59-0.2,0.84s-0.32,0.43-0.55,0.57
		c-0.23,0.14-0.48,0.2-0.74,0.2c-0.26,0-0.5-0.07-0.73-0.2c-0.23-0.14-0.41-0.33-0.55-0.57c-0.14-0.24-0.2-0.52-0.2-0.84
		c0-0.31,0.07-0.59,0.2-0.84s0.32-0.43,0.55-0.56C24.78,7.32,25.02,7.25,25.28,7.25z"/>
	<linearGradient id="SVGID_1_" gradientUnits="userSpaceOnUse" x1="-6.5495" y1="29.6712" x2="-1.5581" y2="20.2328">
		<stop  offset="0" style="stop-color:#C358F8"/>
		<stop  offset="1" style="stop-color:#7835FF"/>
	</linearGradient>
	<path class="st1" d="M-2.06,22.3c-0.25-0.55-0.33-1.18-1.2-1.18l-1.81,0.02c-0.76,0-1.01,0.48-0.83,1.16l1.67,7.4
		c0.21,0.81,0.39,1.23,0.54,1.43l2.52-8.83H-2.06z"/>
	<linearGradient id="SVGID_2_" gradientUnits="userSpaceOnUse" x1="4.3136" y1="29.6634" x2="0.2053" y2="18.4066">
		<stop  offset="0" style="stop-color:#B550FA"/>
		<stop  offset="1" style="stop-color:#F2A0AF"/>
	</linearGradient>
	<path class="st2" d="M6.78,17.23H2.54c-1.02,0-1.34,0.48-1.59,1.13l-1.16,3.94h-0.01l-0.18,0.62l-2.35,8.26
		c-0.02,0.07,0.03,0.14,0.11,0.14h4.9c1.07,0,1.4-0.24,1.77-1.26l3.52-11.82C7.83,17.42,7.12,17.23,6.78,17.23z"/>
	
		<linearGradient id="SVGID_3_" gradientUnits="userSpaceOnUse" x1="-76.6621" y1="167.7915" x2="-74.4991" y2="163.7014" gradientTransform="matrix(2.6007 0 0 -2.6007 181.5072 447.6665)">
		<stop  offset="0" style="stop-color:#C358F8"/>
		<stop  offset="1" style="stop-color:#7835FF"/>
	</linearGradient>
	<path class="st3" d="M-16.72,11.86l-1.81,0.02c-0.76,0-1.01,0.48-0.83,1.17l1.67,7.4c0.37,1.37,0.61,1.61,0.86,1.61h0.48
		c0.95,0,1.29-0.57,1.66-1.61l2.63-7.4h-3.47C-15.77,12.48-15.85,11.86-16.72,11.86L-16.72,11.86z"/>
	
		<linearGradient id="SVGID_4_" gradientUnits="userSpaceOnUse" x1="-71.3418" y1="168.8382" x2="-73.3082" y2="163.4504" gradientTransform="matrix(2.6007 0 0 -2.6007 176.8967 447.6665)">
		<stop  offset="0" style="stop-color:#B550FA"/>
		<stop  offset="1" style="stop-color:#F2A0AF"/>
	</linearGradient>
	<path class="st4" d="M-10.92,7.96h4.24c0.34,0,1.05,0.19,0.77,1.01L-9.43,20.8c-0.36,1.02-0.7,1.25-1.77,1.25h-5.63
		c0.29,0,0.6-0.57,0.97-1.61l3.35-11.34C-12.26,8.45-11.94,7.96-10.92,7.96L-10.92,7.96z"/>
</g>
<g id="Layer_2">
	<linearGradient id="SVGID_5_" gradientUnits="userSpaceOnUse" x1="0.1782" y1="7.0438" x2="13.9693" y2="7.0438">
		<stop  offset="0" style="stop-color:#B550FA"/>
		<stop  offset="1" style="stop-color:#F2A0AF"/>
	</linearGradient>
	<circle class="st5" cx="7.07" cy="7.04" r="6.9"/>
	<rect x="-1.15" y="-0.56" class="st6" width="17.54" height="16.81"/>
	<linearGradient id="SVGID_6_" gradientUnits="userSpaceOnUse" x1="11.1534" y1="23.2998" x2="12.6834" y2="31.5948">
		<stop  offset="0" style="stop-color:#C358F8"/>
		<stop  offset="1" style="stop-color:#7835FF"/>
	</linearGradient>
	<path class="st7" d="M13.97,24.89l-2.96,8.13c0,0,0,0,0,0l-2.32-9.41l3.07,0.05c0.22,0,0.43,0.12,0.56,0.3l0.33,0.5
		c0.13,0.19,0.34,0.31,0.57,0.3l0.64,0L13.97,24.89z"/>
	<linearGradient id="SVGID_7_" gradientUnits="userSpaceOnUse" x1="20.4349" y1="18.8403" x2="14.432" y2="35.2884">
		<stop  offset="0" style="stop-color:#B550FA"/>
		<stop  offset="1" style="stop-color:#F2A0AF"/>
	</linearGradient>
	<path class="st8" d="M23.45,19.61l-4.89,13.93H11.9l3.11-9.15c0,0,0,0,0,0c0.02-0.03,0.03-0.06,0.04-0.09l1.33-3.91
		c0.4-0.28,0.68-0.49,1.08-0.77H23.45z"/>
	<g>
		<g>
			<path class="st0" d="M-13.24,36.32c-2.69,2.6-7.97-1.62-7.97-1.62s0.43-4.93,1.37-5.29c-0.07-0.07-0.15-0.14-0.23-0.23
				c-1.33-1.43,0.13-2.69,0.13-2.69c-0.23,1.31,1.15,1.62,1.15,1.62c-1.63-2.49,1.15-3.18,1.15-3.18c-0.68,1.57,0.57,2.14,0.57,2.14
				c-1.26-3.12,3.1-3.48,3.1-3.48s-2.43,2.09-0.94,3.62c0.25,0.26,1.46,0.67,2.03,1.6c1.11,1.81-0.51,4.38-1.07,5.12
				C-14.52,34.68-13.24,36.32-13.24,36.32z"/>
			<linearGradient id="SVGID_8_" gradientUnits="userSpaceOnUse" x1="-21.802" y1="31.2751" x2="-12.3411" y2="30.1085">
				<stop  offset="3.642173e-07" style="stop-color:#7A2BAB"/>
				<stop  offset="0.495" style="stop-color:#A842A7"/>
				<stop  offset="0.99" style="stop-color:#D15E76"/>
			</linearGradient>
			<path class="st9" d="M-13.1,36.33c-0.33,0.41-0.64,0.54-1,0.71c-0.35,0.15-0.73,0.23-1.11,0.25c-0.76,0.04-1.51-0.11-2.21-0.35
				c-0.71-0.24-1.38-0.56-2.02-0.92c-0.64-0.37-1.27-0.75-1.84-1.24l-0.05-0.04l0.01-0.06c0.14-0.92,0.2-1.85,0.37-2.77
				c0.08-0.46,0.17-0.92,0.3-1.37c0.07-0.23,0.15-0.45,0.25-0.67c0.11-0.21,0.22-0.46,0.52-0.59l-0.04,0.23l0,0
				c-0.41-0.39-0.81-0.9-0.83-1.53c-0.02-0.62,0.3-1.18,0.73-1.59l0.29-0.28l-0.07,0.4c-0.06,0.33,0,0.68,0.21,0.94
				c0.2,0.25,0.52,0.44,0.84,0.54l-0.14,0.2l0,0c-0.2-0.29-0.36-0.61-0.46-0.96c-0.1-0.35-0.11-0.74,0.02-1.1
				c0.13-0.36,0.39-0.64,0.69-0.85c0.3-0.21,0.62-0.36,0.97-0.46l0.28-0.08l-0.12,0.26c-0.16,0.36-0.22,0.75-0.15,1.11
				c0.08,0.35,0.34,0.66,0.64,0.86l0,0l-0.17,0.16c-0.19-0.44-0.3-0.94-0.22-1.43c0.07-0.5,0.37-0.95,0.75-1.25
				c0.78-0.61,1.73-0.86,2.67-0.97l0.42-0.05l-0.32,0.29c-0.44,0.4-0.85,0.89-1.12,1.42c-0.28,0.53-0.36,1.16-0.08,1.67
				c0.07,0.13,0.16,0.24,0.25,0.35c0.09,0.08,0.23,0.17,0.36,0.24c0.27,0.16,0.55,0.31,0.81,0.49c0.53,0.35,0.99,0.88,1.16,1.51
				c0.35,1.29-0.14,2.58-0.74,3.67c-0.15,0.28-0.32,0.55-0.5,0.8c-0.21,0.25-0.26,0.46-0.2,0.77c0.05,0.28,0.18,0.56,0.32,0.83
				c0.07,0.13,0.15,0.26,0.23,0.39l0.13,0.19l0.07,0.09l0.03,0.05C-13.16,36.21-13.13,36.2-13.1,36.33z M-13.37,36.31
				c0,0.1,0.02,0.06-0.01,0.04l-0.04-0.05l-0.07-0.1l-0.13-0.2c-0.09-0.13-0.17-0.27-0.24-0.41c-0.15-0.28-0.28-0.58-0.34-0.91
				c-0.03-0.16-0.04-0.34,0-0.52c0.03-0.18,0.17-0.34,0.24-0.45c0.18-0.25,0.34-0.51,0.49-0.78c0.58-1.06,1.04-2.31,0.72-3.47
				c-0.17-0.57-0.54-1.06-1.04-1.41c-0.25-0.18-0.51-0.34-0.79-0.48c-0.14-0.08-0.28-0.14-0.42-0.27c-0.11-0.12-0.23-0.24-0.31-0.39
				c-0.38-0.59-0.24-1.35,0.05-1.91c0.3-0.58,0.71-1.07,1.19-1.5l0.1,0.24c-0.89,0.11-1.82,0.35-2.52,0.91
				c-0.34,0.28-0.6,0.66-0.66,1.09c-0.08,0.43,0.04,0.87,0.18,1.3l0.09,0.27l-0.26-0.11l0,0c-0.42-0.19-0.73-0.57-0.83-1.02
				c-0.09-0.45,0.02-0.9,0.19-1.29l0.16,0.19c-0.61,0.18-1.25,0.56-1.47,1.15c-0.23,0.6,0.05,1.27,0.4,1.83l0,0l0.18,0.28
				l-0.31-0.08c-0.39-0.1-0.75-0.29-1-0.62c-0.26-0.32-0.32-0.77-0.25-1.16l0.22,0.13c-0.37,0.35-0.65,0.86-0.63,1.37
				c0.01,0.52,0.35,0.97,0.74,1.34l0,0l0.13,0.12l-0.17,0.11c-0.28,0.17-0.45,0.68-0.58,1.09c-0.13,0.44-0.25,0.88-0.34,1.33
				c-0.17,0.91-0.35,1.82-0.39,2.74l-0.04-0.1c0.6,0.41,1.19,0.83,1.83,1.18c0.63,0.35,1.29,0.67,1.98,0.9
				c0.68,0.23,1.4,0.38,2.11,0.33c0.35-0.02,0.7-0.09,1.02-0.23C-13.88,36.68-13.58,36.4-13.37,36.31z"/>
		</g>
		<g>
			<path d="M-12.06,34.41c0,0,0.14-0.41-0.33-0.72c0,0-0.45,0.97-1.57,0.83c0-0.05-0.02-0.1-0.01-0.13c-0.04,0-0.08-0.01-0.13-0.03
				c-0.14-0.02-0.3-0.07-0.47-0.14c-0.12-0.16-0.76-1.13,0.02-2.42c0.78-1.29,1.74-1.19,1.9-1.17c0.02,0.01,0.06,0.04,0.11,0.09
				c0.01,0.01,0.1,0.08,0.12,0.1c0.03-0.04,0.02-0.09,0.04-0.12C-11.84,31.14-10.53,32.58-12.06,34.41z"/>
			<path class="st0" d="M-12.4,30.67c-0.02,0.03-0.01,0.1-0.04,0.14c0.31,0.26,0.9,0.84,1,1.65c0.07,0.54-0.1,1.08-0.5,1.62
				c-0.05-0.16-0.16-0.34-0.38-0.48l-0.12-0.08l-0.06,0.13c-0.03,0.04-0.46,0.88-1.47,0.75c-0.01,0.03,0.01,0.08,0.01,0.13
				c1.12,0.14,1.57-0.83,1.57-0.83c0.47,0.31,0.33,0.72,0.33,0.72C-10.4,32.56-11.86,31.11-12.4,30.67z"/>
		</g>
		<g>
			<circle cx="-16.96" cy="31.86" r="1.26"/>
			<path d="M-15.74,31.54c0.18,0.67-0.23,1.36-0.9,1.54L-15.74,31.54z"/>
			<g>
				<circle cx="-16.96" cy="31.86" r="1.26"/>
				<circle class="st0" cx="-17.41" cy="31.52" r="0.37"/>
			</g>
		</g>
		<g>
			<circle cx="-16.96" cy="31.86" r="1.26"/>
			<path d="M-15.74,31.54c0.18,0.67-0.23,1.36-0.9,1.54L-15.74,31.54z"/>
			<g>
				<circle cx="-16.96" cy="31.86" r="1.26"/>
				<circle class="st0" cx="-17.41" cy="31.52" r="0.37"/>
			</g>
		</g>
	</g>
	<g>
		<g>
			<path class="st10" d="M8.78,10.74c0.23-0.04,0.18-0.09-0.07-0.2l-0.05-0.02l-0.03-0.04C8.59,10.43,7.76,9.4,8.61,8.04
				c0.62-1,0.96-1.05,1.36-1.05c0.14,0-0.07-0.19-0.06-0.19c0.07,0.03,0.77,0.25,0.89,0.34c0.36,0.29,1.01,0.96,1.06,1.72
				c0.04,0.59-0.11,1.13-0.63,1.7l-0.37,0.36c0-0.02,0.2-0.51-0.05-0.77c-0.2,0.25-0.58,0.67-1.22,0.67
				C9.55,10.81,8.39,10.81,8.78,10.74z"/>
			<g>
				<path class="st0" d="M10.04,12.22c-2.35,2.26-6.95-1.42-6.95-1.42s0.37-4.3,1.2-4.61C4.22,6.13,4.16,6.07,4.09,6
					C2.93,4.75,4.2,3.65,4.2,3.65c-0.2,1.14,1,1.42,1,1.42c-1.42-2.17,1-2.77,1-2.77C5.61,3.66,6.7,4.16,6.7,4.16
					C5.6,1.44,9.4,1.13,9.4,1.13S7.28,2.95,8.58,4.29c0.22,0.23,1.27,0.59,1.77,1.4c0.97,1.58-0.45,3.82-0.94,4.46
					C8.93,10.79,10.04,12.22,10.04,12.22z"/>
				<linearGradient id="SVGID_9_" gradientUnits="userSpaceOnUse" x1="2.5742" y1="7.8181" x2="10.8224" y2="6.8011">
					<stop  offset="3.642173e-07" style="stop-color:#7A2BAB"/>
					<stop  offset="0.495" style="stop-color:#A842A7"/>
					<stop  offset="0.99" style="stop-color:#D15E76"/>
				</linearGradient>
				<path class="st11" d="M10.16,12.23c-0.29,0.36-0.56,0.47-0.87,0.62c-0.31,0.13-0.64,0.2-0.97,0.22c-0.66,0.04-1.31-0.1-1.93-0.3
					c-0.62-0.21-1.2-0.49-1.76-0.8c-0.56-0.32-1.11-0.65-1.6-1.08l-0.05-0.04l0.01-0.05c0.12-0.8,0.18-1.61,0.32-2.42
					c0.07-0.4,0.15-0.8,0.26-1.2C3.63,6.98,3.7,6.79,3.79,6.6c0.1-0.19,0.19-0.4,0.45-0.51l-0.04,0.2C3.85,5.94,3.5,5.49,3.49,4.95
					C3.47,4.4,3.75,3.92,4.12,3.56l0.25-0.24L4.32,3.67c-0.05,0.29,0,0.59,0.18,0.82c0.18,0.22,0.45,0.39,0.73,0.47l0,0L5.11,5.13
					c-0.17-0.26-0.32-0.53-0.4-0.84c-0.09-0.3-0.09-0.65,0.02-0.96c0.11-0.31,0.34-0.56,0.59-0.75C5.58,2.4,5.86,2.27,6.17,2.18
					l0.24-0.07l-0.1,0.23C6.17,2.65,6.12,3,6.18,3.31c0.07,0.31,0.3,0.58,0.56,0.75L6.6,4.2C6.43,3.82,6.34,3.39,6.41,2.95
					c0.06-0.44,0.32-0.83,0.66-1.09c0.68-0.53,1.51-0.75,2.33-0.85l0.37-0.04L9.48,1.22C9.09,1.57,8.74,1.99,8.5,2.46
					C8.26,2.92,8.19,3.47,8.43,3.91c0.06,0.11,0.14,0.21,0.22,0.31c0.08,0.07,0.2,0.14,0.31,0.21C9.2,4.57,9.44,4.7,9.67,4.86
					c0.46,0.3,0.86,0.76,1.01,1.32c0.31,1.12-0.13,2.25-0.64,3.2c-0.13,0.24-0.28,0.48-0.44,0.7c-0.19,0.22-0.23,0.4-0.18,0.67
					c0.05,0.25,0.15,0.49,0.28,0.72c0.06,0.12,0.13,0.23,0.2,0.34l0.11,0.17l0.06,0.08l0.03,0.04
					C10.1,12.12,10.14,12.11,10.16,12.23z M9.92,12.21c0,0.09,0.01,0.05-0.01,0.04l-0.03-0.04l-0.06-0.09l-0.12-0.17
					c-0.07-0.12-0.15-0.24-0.21-0.36c-0.13-0.25-0.24-0.51-0.3-0.79c-0.08-0.27,0.03-0.66,0.22-0.85c0.16-0.22,0.3-0.45,0.43-0.68
					c0.51-0.92,0.91-2.01,0.63-3.03C10.33,5.74,10,5.32,9.57,5.01c-0.22-0.16-0.44-0.3-0.69-0.42C8.76,4.52,8.64,4.47,8.51,4.36
					c-0.1-0.1-0.2-0.21-0.27-0.34C7.91,3.51,8.03,2.84,8.29,2.35c0.26-0.5,0.62-0.93,1.03-1.31l0.09,0.21
					c-0.78,0.09-1.59,0.31-2.2,0.79c-0.3,0.24-0.52,0.57-0.57,0.95C6.57,3.36,6.67,3.75,6.8,4.12l0.08,0.24l-0.23-0.1
					C6.28,4.1,6.02,3.76,5.93,3.37C5.85,2.98,5.94,2.59,6.09,2.25l0.14,0.16c-0.53,0.16-1.09,0.49-1.28,1
					c-0.09,0.25-0.1,0.54-0.02,0.81C5.01,4.5,5.15,4.75,5.29,5.01l0.09,0.17H5.18l0,0C4.84,5.09,4.52,4.93,4.3,4.64
					C4.07,4.36,4.02,3.96,4.08,3.63l0.19,0.11c-0.32,0.31-0.57,0.75-0.55,1.2c0.01,0.45,0.3,0.85,0.64,1.17l0.11,0.1L4.33,6.3
					C4.08,6.45,3.93,6.9,3.82,7.26C3.7,7.64,3.61,8.03,3.53,8.42c-0.15,0.79-0.31,1.59-0.34,2.39l-0.04-0.09
					c0.52,0.36,1.04,0.72,1.59,1.03c0.55,0.31,1.13,0.58,1.72,0.78c0.59,0.2,1.22,0.33,1.84,0.29c0.31-0.02,0.61-0.08,0.89-0.2
					C9.48,12.53,9.74,12.29,9.92,12.21z"/>
			</g>
			<path d="M11.07,10.55c0,0,0.12-0.35-0.29-0.62c0,0-0.4,0.81-1.34,0.72c-0.19-0.02-0.4-0.07-0.64-0.17c0,0-0.78-0.97,0-2.26
				c0.78-1.3,1.79-1.06,1.79-1.06s0.07,0.04,0.17,0.13C11.26,7.7,12.49,8.96,11.07,10.55z"/>
		</g>
		<path class="st12" d="M10.59,7.16c0,0,2.21,1.45,0.48,3.39c0,0,0.12-0.35-0.29-0.62c0,0-0.58,1.18-1.97,0.55c0,0-0.79-0.96,0-2.26
			C9.59,6.93,10.59,7.16,10.59,7.16z"/>
		<g>
			<circle cx="6.8" cy="8.33" r="1.1"/>
			<path d="M7.86,8.05c0.15,0.59-0.2,1.19-0.79,1.34L7.86,8.05z"/>
			<g>
				<circle cx="6.8" cy="8.33" r="1.1"/>
				<circle class="st0" cx="6.41" cy="8.04" r="0.33"/>
			</g>
		</g>
		<g>
			<circle cx="6.8" cy="8.33" r="1.1"/>
			<path d="M7.86,8.05c0.15,0.59-0.2,1.19-0.79,1.34L7.86,8.05z"/>
			<g>
				<circle cx="6.8" cy="8.33" r="1.1"/>
				<circle class="st0" cx="6.41" cy="8.04" r="0.33"/>
			</g>
		</g>
	</g>
	<g>
		<g>
			<path class="st0" d="M30.65,32.59c-0.26-0.02-0.52-0.1-0.8-0.22l-0.06-0.03l-0.04-0.05c-0.04-0.05-0.99-1.25-0.02-2.85
				c0.7-1.17,1.57-1.34,2.03-1.34c0.16,0,0.26,0.02,0.28,0.03c0.09,0.04,0.18,0.09,0.31,0.21c0.41,0.34,1.1,1.04,1.18,2.02
				c0.05,0.69-0.22,1.37-0.81,2.03l-0.35,0.31c0-0.01,0.14-0.98-0.15-0.74c-0.24,0.28-0.68,0.64-1.37,0.64
				C30.78,32.6,30.72,32.6,30.65,32.59z"/>
			<path class="st0" d="M29.33,35.21c-2.65,0-5.63-2.36-5.75-2.46l-0.12-0.1l0.01-0.16c0.09-1.03,0.42-4.15,1.2-5.12
				c0,0,0,0-0.01-0.01c-0.44-0.47-0.65-0.98-0.62-1.52c0.05-0.88,0.73-1.48,0.76-1.51l0.62-0.54l-0.15,0.81
				c-0.06,0.32,0.01,0.56,0.13,0.74c-0.13-0.44-0.12-0.86,0.03-1.23c0.4-1.01,1.66-1.34,1.71-1.35l0.57-0.14l-0.21,0.47
				c0.01-0.03,0.03-0.05,0.05-0.08c0.83-1.35,3.09-1.55,3.19-1.55l0.89-0.07L30.96,22c-0.01,0.01-1.23,1.07-1.28,2.13
				c-0.02,0.36,0.11,0.68,0.39,0.96c0.05,0.05,0.22,0.14,0.37,0.23c0.48,0.27,1.21,0.68,1.63,1.37c1.29,2.1-0.81,4.97-1.06,5.29
				c-0.31,0.41,0.33,1.49,0.69,1.95l0.16,0.21l-0.19,0.18C31.07,34.91,30.27,35.21,29.33,35.21z"/>
			<g>
				<path class="st0" d="M31.49,34.1c-2.61,2.52-7.73-1.57-7.73-1.57s0.42-4.78,1.33-5.13c-0.07-0.07-0.14-0.14-0.22-0.22
					c-1.29-1.39,0.12-2.61,0.12-2.61c-0.23,1.27,1.11,1.57,1.11,1.57c-1.58-2.41,1.11-3.08,1.11-3.08
					c-0.66,1.52,0.55,2.08,0.55,2.08c-1.22-3.03,3-3.37,3-3.37s-2.36,2.02-0.91,3.51c0.25,0.25,1.42,0.65,1.97,1.55
					c1.08,1.76-0.5,4.25-1.04,4.96C30.24,32.51,31.49,34.1,31.49,34.1z"/>
				<linearGradient id="SVGID_10_" gradientUnits="userSpaceOnUse" x1="23.1824" y1="29.21" x2="32.3547" y2="28.0791">
					<stop  offset="3.642173e-07" style="stop-color:#7A2BAB"/>
					<stop  offset="0.495" style="stop-color:#A842A7"/>
					<stop  offset="0.99" style="stop-color:#D15E76"/>
				</linearGradient>
				<path class="st13" d="M31.62,34.11c-0.32,0.4-0.62,0.53-0.97,0.69c-0.34,0.14-0.71,0.22-1.08,0.24
					c-0.74,0.04-1.46-0.11-2.14-0.34c-0.68-0.23-1.34-0.54-1.96-0.89c-0.62-0.36-1.24-0.73-1.78-1.2l-0.05-0.04l0.01-0.05
					c0.14-0.89,0.2-1.79,0.36-2.69c0.08-0.45,0.16-0.89,0.29-1.33c0.07-0.22,0.14-0.44,0.25-0.65c0.11-0.21,0.22-0.44,0.5-0.57
					L25,27.5l0,0c-0.4-0.37-0.79-0.87-0.8-1.48c-0.01-0.6,0.29-1.14,0.71-1.54l0.28-0.27l-0.06,0.39c-0.05,0.32,0,0.66,0.2,0.91
					c0.2,0.25,0.5,0.43,0.81,0.52L26,26.22l0,0c-0.2-0.28-0.35-0.59-0.45-0.94c-0.09-0.34-0.11-0.72,0.02-1.06
					c0.13-0.35,0.38-0.62,0.67-0.83c0.29-0.21,0.6-0.35,0.94-0.45l0.27-0.08l-0.11,0.26c-0.15,0.35-0.22,0.73-0.14,1.08
					c0.08,0.34,0.33,0.64,0.62,0.83l0,0l-0.17,0.16c-0.19-0.42-0.29-0.91-0.21-1.39c0.07-0.49,0.36-0.92,0.73-1.21
					c0.75-0.59,1.67-0.83,2.59-0.94l0.41-0.05l-0.31,0.28c-0.43,0.39-0.82,0.86-1.08,1.37c-0.27,0.51-0.35,1.12-0.08,1.61
					c0.06,0.12,0.15,0.24,0.25,0.34c0.08,0.08,0.22,0.16,0.35,0.24c0.26,0.16,0.53,0.3,0.78,0.48c0.51,0.34,0.96,0.85,1.13,1.47
					c0.34,1.25-0.14,2.51-0.71,3.56c-0.15,0.27-0.31,0.53-0.49,0.78c-0.21,0.24-0.25,0.45-0.2,0.75c0.05,0.28,0.17,0.55,0.31,0.81
					c0.07,0.13,0.15,0.26,0.22,0.38l0.12,0.18l0.06,0.09l0.03,0.04C31.56,33.99,31.59,33.99,31.62,34.11z M31.35,34.1
					c0,0.1,0.01,0.06-0.01,0.04l-0.03-0.05L31.24,34l-0.13-0.19c-0.08-0.13-0.16-0.26-0.23-0.4c-0.14-0.27-0.27-0.56-0.33-0.88
					c-0.03-0.16-0.04-0.33,0-0.5c0.03-0.18,0.16-0.33,0.24-0.44c0.17-0.24,0.33-0.5,0.48-0.75c0.56-1.02,1.01-2.24,0.7-3.37
					c-0.16-0.55-0.52-1.03-1.01-1.37c-0.24-0.17-0.49-0.33-0.76-0.47c-0.13-0.08-0.27-0.14-0.41-0.26c-0.11-0.12-0.22-0.24-0.3-0.38
					c-0.37-0.57-0.23-1.31,0.05-1.85c0.29-0.56,0.69-1.04,1.15-1.46l0.1,0.23c-0.86,0.1-1.77,0.34-2.44,0.88
					c-0.33,0.27-0.58,0.64-0.64,1.05c-0.07,0.42,0.04,0.85,0.18,1.26l0.09,0.27l-0.26-0.11l0,0c-0.41-0.18-0.71-0.56-0.8-0.99
					c-0.09-0.44,0.02-0.87,0.18-1.25l0.15,0.18c-0.59,0.17-1.21,0.54-1.43,1.11c-0.22,0.58,0.05,1.23,0.39,1.77l0,0l0.17,0.27
					l-0.3-0.08c-0.37-0.1-0.73-0.28-0.97-0.6c-0.26-0.31-0.31-0.75-0.24-1.12l0.22,0.12c-0.36,0.34-0.63,0.84-0.62,1.33
					c0.01,0.51,0.34,0.94,0.71,1.3l0,0l0.12,0.12l-0.17,0.1c-0.27,0.17-0.44,0.66-0.56,1.06c-0.13,0.42-0.24,0.86-0.33,1.29
					c-0.17,0.88-0.34,1.76-0.37,2.66l-0.04-0.1c0.58,0.4,1.16,0.81,1.77,1.15c0.61,0.34,1.25,0.65,1.92,0.87
					c0.66,0.22,1.36,0.36,2.04,0.32c0.34-0.02,0.68-0.09,0.99-0.22C30.86,34.45,31.16,34.18,31.35,34.1z"/>
			</g>
			<path d="M32.63,32.25c0,0,0.14-0.39-0.32-0.69c0,0-0.45,0.9-1.49,0.8c-0.21-0.02-0.45-0.08-0.71-0.19c0,0-0.87-1.08,0-2.51
				c0.87-1.44,1.99-1.18,1.99-1.18s0.08,0.05,0.19,0.15C32.84,29.08,34.21,30.48,32.63,32.25z"/>
		</g>
		<path class="st12" d="M32.1,28.48c0,0,2.46,1.62,0.53,3.77c0,0,0.13-0.39-0.32-0.69c0,0-0.65,1.31-2.2,0.61c0,0-0.87-1.07,0-2.51
			C30.98,28.22,32.1,28.48,32.1,28.48z"/>
		<g>
			<circle cx="27.88" cy="29.78" r="1.22"/>
			<path d="M29.06,29.47c0.17,0.65-0.22,1.32-0.87,1.49L29.06,29.47z"/>
			<g>
				<circle cx="27.88" cy="29.78" r="1.22"/>
				<circle class="st0" cx="27.44" cy="29.45" r="0.36"/>
			</g>
		</g>
		<g>
			<circle cx="27.88" cy="29.78" r="1.22"/>
			<path d="M29.06,29.47c0.17,0.65-0.22,1.32-0.87,1.49L29.06,29.47z"/>
			<g>
				<circle cx="27.88" cy="29.78" r="1.22"/>
				<circle class="st0" cx="27.44" cy="29.45" r="0.36"/>
			</g>
		</g>
	</g>
</g>
</svg>
