<?xml version="1.0" encoding="utf-8"?>
<!-- Generator: Adobe Illustrator 25.0.0, SVG Export Plug-In . SVG Version: 6.00 Build 0)  -->
<svg version="1.1" xmlns="http://www.w3.org/2000/svg" xmlns:xlink="http://www.w3.org/1999/xlink" x="0px" y="0px"
	 viewBox="0 0 37.25 14.09" style="enable-background:new 0 0 37.25 14.09;" xml:space="preserve">
<style type="text/css">
	.st0{fill:#FFFFFF;}
	.st1{fill:url(#SVGID_1_);}
	.st2{fill:url(#SVGID_2_);}
	.st3{fill:url(#SVGID_3_);}
	.st4{fill:url(#SVGID_4_);}
	.st5{fill:url(#SVGID_5_);}
</style>
<g id="logo">
	<path id="logotype" class="st0" d="M29.99,3.7c-0.25,0-0.47,0.09-0.64,0.27c-0.18,0.17-0.27,0.38-0.27,0.63s0.09,0.47,0.27,0.64
		c0.18,0.18,0.39,0.27,0.64,0.27s0.46-0.09,0.63-0.27c0.18-0.18,0.27-0.39,0.27-0.64c0-0.25-0.09-0.46-0.27-0.63
		C30.45,3.79,30.24,3.7,29.99,3.7z M16.48,3.91v7.68h1.41v-1.7l0.71-0.7l1.49,2.39h1.66V11.5l-2.17-3.27l2.07-2.03V6.12h-1.73
		l-1.96,1.97h-0.07V3.91L16.48,3.91z M22.48,3.91v7.68h1.32v-0.65h0.09c0.14,0.24,0.36,0.43,0.64,0.59c0.29,0.16,0.63,0.24,1,0.24
		c0.49,0,0.94-0.12,1.34-0.36c0.41-0.25,0.73-0.59,0.95-1.03c0.23-0.44,0.34-0.95,0.34-1.51c0-0.56-0.11-1.06-0.34-1.5
		c-0.23-0.44-0.55-0.79-0.95-1.03c-0.4-0.25-0.85-0.38-1.34-0.38c-0.37,0-0.7,0.08-0.99,0.25c-0.29,0.16-0.5,0.35-0.65,0.59H23.8
		l0.09-0.77v-2.1L22.48,3.91z M35.24,5.95c-0.35,0-0.68,0.08-0.98,0.24c-0.3,0.15-0.53,0.36-0.7,0.62h-0.09V6.12h-1.32v5.47h1.41
		V8.8c0-0.44,0.11-0.81,0.34-1.11c0.24-0.29,0.54-0.44,0.92-0.44c0.32,0,0.57,0.1,0.75,0.29c0.18,0.19,0.27,0.46,0.27,0.82v3.23
		h1.41v-3.4c0-0.69-0.17-1.24-0.52-1.64S35.89,5.95,35.24,5.95L35.24,5.95z M29.28,6.12v5.47h1.41V6.12H29.28z M25.28,7.25
		c0.26,0,0.51,0.07,0.74,0.2c0.23,0.13,0.41,0.31,0.55,0.56s0.2,0.52,0.2,0.84s-0.07,0.59-0.2,0.84s-0.32,0.43-0.55,0.57
		c-0.23,0.14-0.48,0.2-0.74,0.2c-0.26,0-0.5-0.07-0.73-0.2c-0.23-0.14-0.41-0.33-0.55-0.57c-0.14-0.24-0.2-0.52-0.2-0.84
		c0-0.31,0.07-0.59,0.2-0.84s0.32-0.43,0.55-0.56C24.78,7.32,25.02,7.25,25.28,7.25z"/>
	
		<linearGradient id="SVGID_1_" gradientUnits="userSpaceOnUse" x1="-71.4866" y1="164.2289" x2="-69.3236" y2="160.1389" gradientTransform="matrix(2.6007 0 0 -2.6007 181.5071 447.6665)">
		<stop  offset="0" style="stop-color:#C358F8"/>
		<stop  offset="1" style="stop-color:#7835FF"/>
	</linearGradient>
	<path class="st1" d="M-3.26,21.12l-1.81,0.02c-0.76,0-1.01,0.48-0.83,1.17l1.67,7.4c0.37,1.37,0.61,1.61,0.86,1.61h0.48
		c0.95,0,1.29-0.57,1.66-1.61l2.63-7.4h-3.47C-2.31,21.75-2.39,21.12-3.26,21.12L-3.26,21.12z"/>
	
		<linearGradient id="SVGID_2_" gradientUnits="userSpaceOnUse" x1="-66.1663" y1="165.2757" x2="-68.1327" y2="159.8878" gradientTransform="matrix(2.6007 0 0 -2.6007 176.8966 447.6665)">
		<stop  offset="0" style="stop-color:#B550FA"/>
		<stop  offset="1" style="stop-color:#F2A0AF"/>
	</linearGradient>
	<path class="st2" d="M2.54,17.23h4.24c0.34,0,1.05,0.19,0.77,1.01L4.03,30.06c-0.36,1.02-0.7,1.25-1.77,1.25h-5.63
		c0.29,0,0.6-0.57,0.97-1.61l3.35-11.34C1.2,17.71,1.52,17.23,2.54,17.23L2.54,17.23z"/>
</g>
<g id="Layer_2">
	<linearGradient id="SVGID_3_" gradientUnits="userSpaceOnUse" x1="11.1534" y1="23.2998" x2="12.6834" y2="31.5948">
		<stop  offset="0" style="stop-color:#C358F8"/>
		<stop  offset="1" style="stop-color:#7835FF"/>
	</linearGradient>
	<path class="st3" d="M13.97,24.89l-2.96,8.13c0,0,0,0,0,0l-2.32-9.41l3.07,0.05c0.22,0,0.43,0.12,0.56,0.3l0.33,0.5
		c0.13,0.19,0.34,0.31,0.57,0.3l0.64,0L13.97,24.89z"/>
	<linearGradient id="SVGID_4_" gradientUnits="userSpaceOnUse" x1="20.4349" y1="18.8403" x2="14.432" y2="35.2884">
		<stop  offset="0" style="stop-color:#B550FA"/>
		<stop  offset="1" style="stop-color:#F2A0AF"/>
	</linearGradient>
	<path class="st4" d="M23.45,19.61l-4.89,13.93H11.9l3.11-9.15c0,0,0,0,0,0c0.02-0.03,0.03-0.06,0.04-0.09l1.33-3.91
		c0.4-0.28,0.68-0.49,1.08-0.77H23.45z"/>
	<g>
		<g>
			<path class="st0" d="M9.99,12.98c-2.69,2.6-7.97-1.62-7.97-1.62s0.43-4.93,1.37-5.29C3.32,6,3.24,5.92,3.17,5.84
				C1.84,4.41,3.29,3.15,3.29,3.15C3.06,4.46,4.44,4.78,4.44,4.78C2.81,2.29,5.59,1.6,5.59,1.6C4.91,3.16,6.16,3.74,6.16,3.74
				c-1.26-3.12,3.1-3.48,3.1-3.48S6.82,2.35,8.32,3.88c0.25,0.26,1.46,0.67,2.03,1.6c1.11,1.81-0.51,4.38-1.07,5.12
				C8.71,11.34,9.99,12.98,9.99,12.98z"/>
			<linearGradient id="SVGID_5_" gradientUnits="userSpaceOnUse" x1="1.4278" y1="7.9319" x2="10.8887" y2="6.7654">
				<stop  offset="3.642173e-07" style="stop-color:#7A2BAB"/>
				<stop  offset="0.495" style="stop-color:#A842A7"/>
				<stop  offset="0.99" style="stop-color:#D15E76"/>
			</linearGradient>
			<path class="st5" d="M10.13,12.99c-0.33,0.41-0.64,0.54-1,0.71c-0.35,0.15-0.73,0.23-1.11,0.25c-0.76,0.04-1.51-0.11-2.21-0.35
				c-0.71-0.24-1.38-0.56-2.02-0.92c-0.64-0.37-1.27-0.75-1.84-1.24L1.89,11.4l0.01-0.06c0.14-0.92,0.2-1.85,0.37-2.77
				c0.08-0.46,0.17-0.92,0.3-1.37c0.07-0.23,0.15-0.45,0.25-0.67c0.11-0.21,0.22-0.46,0.52-0.59L3.3,6.17l0,0
				c-0.41-0.39-0.81-0.9-0.83-1.53C2.46,4.02,2.77,3.46,3.2,3.05l0.29-0.28l-0.07,0.4c-0.06,0.33,0,0.68,0.21,0.94
				c0.2,0.25,0.52,0.44,0.84,0.54l-0.14,0.2l0,0c-0.2-0.29-0.36-0.61-0.46-0.96c-0.1-0.35-0.11-0.74,0.02-1.1
				c0.13-0.36,0.39-0.64,0.69-0.85c0.3-0.21,0.62-0.36,0.97-0.46l0.28-0.08L5.71,1.65C5.55,2.01,5.49,2.4,5.57,2.76
				c0.08,0.35,0.34,0.66,0.64,0.86l0,0L6.04,3.79c-0.19-0.44-0.3-0.94-0.22-1.43C5.89,1.85,6.2,1.4,6.57,1.1
				C7.35,0.48,8.3,0.24,9.24,0.13l0.42-0.05L9.34,0.37C8.9,0.77,8.5,1.25,8.23,1.78C7.95,2.31,7.86,2.94,8.15,3.45
				C8.21,3.58,8.3,3.69,8.4,3.8c0.09,0.08,0.23,0.17,0.36,0.24c0.27,0.16,0.55,0.31,0.81,0.49c0.53,0.35,0.99,0.88,1.16,1.51
				c0.35,1.29-0.14,2.58-0.74,3.67c-0.15,0.28-0.32,0.55-0.5,0.8c-0.21,0.25-0.26,0.46-0.2,0.77c0.05,0.28,0.18,0.56,0.32,0.83
				c0.07,0.13,0.15,0.26,0.23,0.39l0.13,0.19l0.07,0.09l0.03,0.05C10.07,12.87,10.1,12.86,10.13,12.99z M9.86,12.97
				c0,0.1,0.02,0.06-0.01,0.04l-0.04-0.05l-0.07-0.1l-0.13-0.2c-0.09-0.13-0.17-0.27-0.24-0.41c-0.15-0.28-0.28-0.58-0.34-0.91
				c-0.03-0.16-0.04-0.34,0-0.52c0.03-0.18,0.17-0.34,0.24-0.45c0.18-0.25,0.34-0.51,0.49-0.78c0.58-1.06,1.04-2.31,0.72-3.47
				c-0.17-0.57-0.54-1.06-1.04-1.41C9.2,4.53,8.94,4.37,8.66,4.23C8.52,4.15,8.38,4.09,8.24,3.96C8.12,3.84,8.01,3.72,7.93,3.57
				C7.55,2.99,7.69,2.22,7.98,1.66c0.3-0.58,0.71-1.07,1.19-1.5l0.1,0.24C8.38,0.51,7.44,0.75,6.75,1.31
				c-0.34,0.28-0.6,0.66-0.66,1.09c-0.08,0.43,0.04,0.87,0.18,1.3l0.09,0.27L6.11,3.85l0,0C5.68,3.67,5.38,3.28,5.28,2.83
				c-0.09-0.45,0.02-0.9,0.19-1.29l0.16,0.19C5.01,1.91,4.37,2.29,4.15,2.88C3.92,3.48,4.2,4.15,4.55,4.7l0,0l0.18,0.28L4.41,4.9
				c-0.39-0.1-0.75-0.29-1-0.62C3.15,3.96,3.09,3.51,3.16,3.13l0.22,0.13C3.01,3.61,2.73,4.12,2.75,4.63
				C2.76,5.15,3.1,5.6,3.48,5.97l0,0l0.13,0.12L3.44,6.19C3.16,6.37,2.99,6.88,2.86,7.29C2.72,7.72,2.61,8.17,2.52,8.62
				c-0.17,0.91-0.35,1.82-0.39,2.74l-0.04-0.1c0.6,0.41,1.19,0.83,1.83,1.18c0.63,0.35,1.29,0.67,1.98,0.9
				c0.68,0.23,1.4,0.38,2.11,0.33c0.35-0.02,0.7-0.09,1.02-0.23C9.35,13.34,9.65,13.06,9.86,12.97z"/>
		</g>
		<path d="M10.63,7.18c0,0,2.53,1.67,0.55,3.89c0,0,0.14-0.4-0.33-0.71c0,0-0.67,1.35-2.27,0.63c0,0-0.9-1.11,0-2.59
			S10.63,7.18,10.63,7.18z"/>
		<g>
			<circle cx="6.27" cy="8.52" r="1.26"/>
			<path d="M7.49,8.2c0.18,0.67-0.23,1.36-0.9,1.54"/>
			<g>
				<circle cx="6.27" cy="8.52" r="1.26"/>
				<circle class="st0" cx="5.82" cy="8.18" r="0.37"/>
			</g>
		</g>
		<g>
			<circle cx="6.27" cy="8.52" r="1.26"/>
			<path d="M7.49,8.2c0.18,0.67-0.23,1.36-0.9,1.54"/>
			<g>
				<circle cx="6.27" cy="8.52" r="1.26"/>
				<circle class="st0" cx="5.82" cy="8.18" r="0.37"/>
			</g>
		</g>
	</g>
</g>
</svg>
