<?xml version="1.0" encoding="utf-8"?>
<!-- Generator: Adobe Illustrator 25.0.0, SVG Export Plug-In . SVG Version: 6.00 Build 0)  -->
<svg version="1.1" id="logo" xmlns="http://www.w3.org/2000/svg" xmlns:xlink="http://www.w3.org/1999/xlink" x="0px" y="0px"
	 viewBox="0 0 13.573 14.088" enable-background="new 0 0 13.573 14.088" xml:space="preserve">
<linearGradient id="SVGID_1_" gradientUnits="userSpaceOnUse" x1="0.0126" y1="9.0712" x2="13.5604" y2="9.0712" gradientTransform="matrix(1 0 0 -1 0 16)">
	<stop  offset="0" style="stop-color:#B550FA"/>
	<stop  offset="1" style="stop-color:#F2A0AF"/>
</linearGradient>
<circle fill="url(#SVGID_1_)" cx="6.786" cy="6.929" r="6.774"/>
<g>
	<g>
		<path fill="#FFFFFF" d="M9.75,11.968c-2.286,2.205-6.773-1.38-6.773-1.38s0.365-4.191,1.167-4.492
			C4.082,6.039,4.018,5.975,3.952,5.904C2.825,4.69,4.06,3.619,4.06,3.619c-0.199,1.112,0.975,1.38,0.975,1.38
			C3.653,2.885,6.009,2.298,6.009,2.298c-0.576,1.331,0.485,1.82,0.485,1.82C5.423,1.466,9.125,1.166,9.125,1.166
			S7.057,2.939,8.328,4.24c0.215,0.22,1.241,0.57,1.724,1.359c0.943,1.539-0.434,3.72-0.912,4.348
			C8.663,10.575,9.75,11.968,9.75,11.968z"/>
		<linearGradient id="SVGID_2_" gradientUnits="userSpaceOnUse" x1="2.4754" y1="7.6798" x2="10.5115" y2="6.689">
			<stop  offset="3.642173e-07" style="stop-color:#7A2BAB"/>
			<stop  offset="0.495" style="stop-color:#A842A7"/>
			<stop  offset="0.99" style="stop-color:#D15E76"/>
		</linearGradient>
		<path fill="url(#SVGID_2_)" d="M9.865,11.976c-0.281,0.349-0.547,0.462-0.848,0.606c-0.3,0.126-0.623,0.194-0.944,0.21
			c-0.645,0.036-1.279-0.096-1.877-0.296c-0.6-0.2-1.17-0.473-1.718-0.78c-0.542-0.316-1.082-0.638-1.562-1.051l-0.044-0.038
			l0.007-0.048c0.12-0.784,0.171-1.572,0.314-2.353c0.068-0.391,0.143-0.782,0.254-1.167c0.06-0.192,0.127-0.383,0.216-0.57
			c0.093-0.181,0.189-0.387,0.44-0.5L4.067,6.18l0,0C3.718,5.853,3.376,5.414,3.365,4.881C3.352,4.353,3.617,3.88,3.984,3.532
			L4.23,3.298L4.173,3.64C4.127,3.924,4.169,4.218,4.349,4.434c0.172,0.215,0.439,0.377,0.71,0.458L4.943,5.058
			c-0.168-0.25-0.308-0.521-0.39-0.82C4.465,3.942,4.467,3.607,4.575,3.308c0.11-0.302,0.331-0.547,0.58-0.726
			c0.253-0.179,0.525-0.31,0.826-0.395L6.215,2.12l-0.1,0.224C5.98,2.649,5.927,2.985,5.992,3.291
			C6.064,3.592,6.281,3.855,6.539,4.02L6.394,4.158l0,0C6.232,3.786,6.141,3.361,6.209,2.939c0.06-0.425,0.317-0.805,0.639-1.064
			c0.659-0.521,1.467-0.726,2.268-0.825l0.356-0.044L9.2,1.254C8.823,1.597,8.48,2.006,8.25,2.458
			C8.014,2.907,7.942,3.44,8.182,3.873c0.055,0.109,0.135,0.207,0.216,0.3C8.473,4.244,8.595,4.314,8.705,4.38
			c0.226,0.137,0.463,0.264,0.686,0.419c0.45,0.296,0.839,0.744,0.987,1.286c0.299,1.095-0.123,2.195-0.625,3.119
			C9.621,9.438,9.481,9.667,9.324,9.887c-0.18,0.214-0.221,0.393-0.171,0.653c0.046,0.241,0.15,0.479,0.27,0.706
			c0.06,0.114,0.127,0.225,0.197,0.334l0.108,0.161l0.056,0.079l0.029,0.039C9.812,11.871,9.842,11.866,9.865,11.976z M9.634,11.96
			c0.003,0.084,0.013,0.052-0.007,0.037l-0.03-0.041l-0.059-0.083l-0.112-0.169c-0.072-0.114-0.142-0.23-0.205-0.351
			c-0.126-0.24-0.238-0.493-0.291-0.774c-0.081-0.263,0.033-0.642,0.212-0.824C9.292,9.545,9.43,9.322,9.558,9.095
			c0.494-0.896,0.887-1.959,0.614-2.95c-0.141-0.486-0.459-0.9-0.885-1.2c-0.21-0.153-0.432-0.289-0.669-0.41
			C8.5,4.468,8.384,4.416,8.26,4.309C8.163,4.208,8.069,4.103,7.998,3.979c-0.324-0.501-0.203-1.15,0.045-1.624
			c0.252-0.492,0.603-0.908,1.007-1.277l0.085,0.203c-0.756,0.09-1.55,0.3-2.139,0.772C6.704,2.289,6.489,2.611,6.437,2.976
			C6.372,3.341,6.471,3.718,6.594,4.077l0,0l0.112,0.251L6.449,4.216c-0.36-0.158-0.62-0.487-0.703-0.869
			C5.669,2.964,5.759,2.583,5.903,2.252L6.037,2.41C5.519,2.565,4.978,2.886,4.792,3.388c-0.088,0.248-0.095,0.525-0.015,0.79
			c0.068,0.268,0.212,0.512,0.349,0.761l0.127,0.229L5.01,5.105C4.682,5.02,4.374,4.861,4.159,4.582
			C3.934,4.307,3.886,3.925,3.946,3.599l0.19,0.108C3.819,4.006,3.58,4.44,3.596,4.873c0.007,0.443,0.297,0.824,0.626,1.139l0,0
			l0.108,0.102l-0.145,0.09C3.945,6.352,3.8,6.784,3.69,7.133c-0.114,0.37-0.208,0.75-0.288,1.133
			c-0.145,0.769-0.298,1.546-0.328,2.331l-0.037-0.085c0.999,0.714,2.066,1.373,3.231,1.765c0.579,0.194,1.188,0.319,1.789,0.285
			c0.3-0.015,0.596-0.078,0.87-0.193C9.202,12.274,9.462,12.037,9.634,11.96z"/>
	</g>
	<path d="M10.289,7.039c0,0,2.153,1.417,0.465,3.303c0,0,0.118-0.344-0.283-0.605c0,0-0.567,1.146-1.924,0.534
		c0,0-0.765-0.939,0-2.199C9.311,6.81,10.289,7.039,10.289,7.039z"/>
	<g>
		<circle cx="6.589" cy="8.178" r="1.07"/>
		<circle fill="#FFFFFF" cx="6.209" cy="7.891" r="0.317"/>
	</g>
</g>
</svg>
